# xmcd CD database file
#
# Track frame offsets:
#	150
#	8678
#	20718
#	42808
#	53775
#	78370
#	113106
#	127691
#	144115
#	177664
#	184469
#
# Disc length: 2599 seconds
#
# Revision: 0
# Processed by: cddbd v1.5.2PL0 Copyright (c) Steve Scherf et al.
# Submitted via: CDex 1.51
#
DISCID=880a250b
DTITLE=Perko, Pyysalo, Viinikainen - Maan korvessa
DYEAR=2008
DGENRE=Jazz
TTITLE0=Autuas ken elämänsä
TTITLE1=Kiitos nyt Herran
TTITLE2=Jo kaikua, Herra sun kutsusi tuo
TTITLE3=alkusoitto
TTITLE4=Puolees Jeesus rukouksin
TTITLE5=Maan korvessa kulkevi lapsosen tie
TTITLE6=alkusoitto
TTITLE7=Sen suven suloisuutta
TTITLE8=Nyt ylös sieluni
TTITLE9=alkusoitto
TTITLE10=Oi, Herra luoksein jää
EXTD=YEAR: 2008
EXTT0=
EXTT1=
EXTT2=
EXTT3=
EXTT4=
EXTT5=
EXTT6=
EXTT7=
EXTT8=
EXTT9=
EXTT10=
PLAYORDER=
